<svg width="882" height="74" viewBox="0 0 882 74" fill="none" xmlns="http://www.w3.org/2000/svg">
<line opacity="0.7" x1="-4.37114e-08" y1="73.5" x2="882" y2="73.4999" stroke="#545454"/>
<path d="M2.87646 6.81818V33H6.63499V14.0412H6.87789L14.5995 32.9616H17.7188L25.4404 14.054H25.6833V33H29.4418V6.81818H24.6478L16.3125 27.1705H16.0057L7.6705 6.81818H2.87646Z" fill="white"/>
<path d="M44.0093 33.3963C48.292 33.3963 51.3218 31.2869 52.1911 28.0909L48.5732 27.4389C47.8829 29.2926 46.2209 30.2386 44.0476 30.2386C40.7749 30.2386 38.576 28.1165 38.4738 24.3324H52.434V22.9773C52.434 15.8821 48.1897 13.108 43.7408 13.108C38.2692 13.108 34.6641 17.2756 34.6641 23.3097C34.6641 29.4077 38.2181 33.3963 44.0093 33.3963ZM38.4866 21.4688C38.64 18.6818 40.6598 16.2656 43.7664 16.2656C46.7323 16.2656 48.6755 18.4645 48.6883 21.4688H38.4866Z" fill="white"/>
<path d="M71.3896 18.1577C70.597 15.1023 68.2064 13.108 63.962 13.108C59.526 13.108 56.3811 15.4474 56.3811 18.9247C56.3811 21.7116 58.0686 23.5653 61.7504 24.3835L65.0743 25.1122C66.9663 25.5341 67.8484 26.3778 67.8484 27.6051C67.8484 29.1264 66.2248 30.3153 63.7192 30.3153C61.4308 30.3153 59.9606 29.331 59.5004 27.4006L55.8058 27.9631C56.445 31.4403 59.3342 33.3963 63.7447 33.3963C68.4876 33.3963 71.7731 30.8778 71.7731 27.3239C71.7731 24.5497 70.0089 22.8366 66.4038 22.0057L63.2845 21.2898C61.124 20.7784 60.1907 20.0497 60.2035 18.7202C60.1907 17.2116 61.8271 16.1378 64.0004 16.1378C66.3782 16.1378 67.4777 17.4545 67.9251 18.7713L71.3896 18.1577Z" fill="white"/>
<path d="M85.1421 13.3636H81.1151V8.65909H77.2927V13.3636H74.4162V16.4318H77.2927V28.027C77.2799 31.5938 80.0029 33.3196 83.0199 33.2557C84.2344 33.2429 85.0526 33.0128 85.5 32.8466L84.8097 29.6889C84.554 29.7401 84.081 29.8551 83.4674 29.8551C82.2273 29.8551 81.1151 29.446 81.1151 27.2344V16.4318H85.1421V13.3636Z" fill="white"/>
<path d="M97.4308 33.3963C102.966 33.3963 106.584 29.3438 106.584 23.2713C106.584 17.1605 102.966 13.108 97.4308 13.108C91.8953 13.108 88.2774 17.1605 88.2774 23.2713C88.2774 29.3438 91.8953 33.3963 97.4308 33.3963ZM97.4436 30.1875C93.8257 30.1875 92.1382 27.0298 92.1382 23.2585C92.1382 19.5 93.8257 16.304 97.4436 16.304C101.036 16.304 102.723 19.5 102.723 23.2585C102.723 27.0298 101.036 30.1875 97.4436 30.1875Z" fill="white"/>
<path d="M110.057 9H111.114V5.59091H113.023C113.099 5.59091 113.172 5.59091 113.244 5.58665L115.085 9H116.313L114.34 5.39489C115.452 5.01562 115.972 4.10795 115.972 2.94886C115.972 1.40625 115.051 0.272727 113.006 0.272727H110.057V9ZM111.114 4.63636V1.21023H112.972C114.386 1.21023 114.932 1.90057 114.932 2.94886C114.932 3.99716 114.386 4.63636 112.989 4.63636H111.114Z" fill="white"/>
<path d="M121.721 6.32386C121.721 7.55114 120.784 8.11364 120.034 8.11364C119.199 8.11364 118.602 7.5 118.602 6.54545V2.45455H117.596V6.61364C117.596 8.28409 118.483 9.08523 119.71 9.08523C120.699 9.08523 121.346 8.55682 121.653 7.89205H121.721V9H122.727V2.45455H121.721V6.32386Z" fill="white"/>
<path d="M129.205 3.92045C128.89 2.99148 128.183 2.36932 126.887 2.36932C125.506 2.36932 124.484 3.15341 124.484 4.26136C124.484 5.16477 125.021 5.76989 126.222 6.05114L127.313 6.30682C127.974 6.46023 128.285 6.77557 128.285 7.22727C128.285 7.78977 127.688 8.25 126.751 8.25C125.928 8.25 125.413 7.89631 125.234 7.19318L124.279 7.43182C124.514 8.54403 125.43 9.13636 126.768 9.13636C128.289 9.13636 129.325 8.3054 129.325 7.17614C129.325 6.2642 128.754 5.68892 127.586 5.40341L126.614 5.16477C125.839 4.97301 125.489 4.71307 125.489 4.21023C125.489 3.64773 126.086 3.23864 126.887 3.23864C127.765 3.23864 128.127 3.72443 128.302 4.17614L129.205 3.92045Z" fill="white"/>
<path d="M135.475 3.92045C135.159 2.99148 134.452 2.36932 133.157 2.36932C131.776 2.36932 130.753 3.15341 130.753 4.26136C130.753 5.16477 131.29 5.76989 132.492 6.05114L133.583 6.30682C134.243 6.46023 134.554 6.77557 134.554 7.22727C134.554 7.78977 133.958 8.25 133.02 8.25C132.198 8.25 131.682 7.89631 131.503 7.19318L130.549 7.43182C130.783 8.54403 131.699 9.13636 133.037 9.13636C134.559 9.13636 135.594 8.3054 135.594 7.17614C135.594 6.2642 135.023 5.68892 133.856 5.40341L132.884 5.16477C132.108 4.97301 131.759 4.71307 131.759 4.21023C131.759 3.64773 132.356 3.23864 133.157 3.23864C134.034 3.23864 134.397 3.72443 134.571 4.17614L135.475 3.92045Z" fill="white"/>
<path d="M137.108 9H138.114V2.45455H137.108V9ZM137.619 1.36364C138.011 1.36364 138.335 1.05682 138.335 0.681818C138.335 0.306818 138.011 0 137.619 0C137.227 0 136.903 0.306818 136.903 0.681818C136.903 1.05682 137.227 1.36364 137.619 1.36364Z" fill="white"/>
<path d="M141.882 9.15341C143.024 9.15341 143.62 8.53977 143.825 8.11364H143.876V9H144.882V4.6875C144.882 2.60795 143.297 2.36932 142.461 2.36932C141.473 2.36932 140.348 2.71023 139.836 3.90341L140.791 4.24432C141.012 3.76705 141.537 3.25568 142.495 3.25568C143.42 3.25568 143.876 3.74574 143.876 4.58523V4.61932C143.876 5.10511 143.382 5.0625 142.189 5.21591C140.974 5.37358 139.649 5.64205 139.649 7.14205C139.649 8.42045 140.637 9.15341 141.882 9.15341ZM142.035 8.25C141.234 8.25 140.655 7.89205 140.655 7.19318C140.655 6.42614 141.353 6.1875 142.137 6.08523C142.564 6.03409 143.706 5.91477 143.876 5.71023V6.63068C143.876 7.44886 143.228 8.25 142.035 8.25Z" fill="white"/>
</svg>
